<svg xmlns="http://www.w3.org/2000/svg" version="1.1" xmlns:xlink="http://www.w3.org/1999/xlink" xmlns:svgjs="http://svgjs.dev/svgjs" width="1440" height="560" preserveAspectRatio="none" viewBox="0 0 1440 560"><g mask="url(&quot;#SvgjsMask1001&quot;)" fill="none"><rect width="1440" height="560" x="0" y="0" fill="#0e2a47"></rect><path d="M 0,279 C 57.6,284 172.8,353.4 288,304 C 403.2,254.6 460.8,36.6 576,32 C 691.2,27.4 748.8,285 864,281 C 979.2,277 1036.8,-22.4 1152,12 C 1267.2,46.4 1382.4,364.8 1440,453L1440 560L0 560z" fill="#184a7e"></path><path d="M 0,486 C 96,437 288,272.2 480,241 C 672,209.8 768,343.8 960,330 C 1152,316.2 1344,203.6 1440,172L1440 560L0 560z" fill="#2264ab"></path></g><defs><mask id="SvgjsMask1001"><rect width="1440" height="560" fill="#ffffff"></rect></mask></defs></svg>