<svg xmlns="http://www.w3.org/2000/svg" version="1.1" xmlns:xlink="http://www.w3.org/1999/xlink" xmlns:svgjs="http://svgjs.dev/svgjs" width="1440" height="560" preserveAspectRatio="none" viewBox="0 0 1440 560"><g mask="url(&quot;#SvgjsMask1002&quot;)" fill="none"><rect width="1440" height="560" x="0" y="0" fill="rgba(42, 42, 61, 1)"></rect><path d="M0,587.46C108.339,593.377,199.911,510.038,282.751,439.969C357.619,376.643,404.337,292.207,451.017,205.973C501.052,113.539,558.947,23.723,564.874,-81.217C571.574,-199.841,566.152,-333.397,486.458,-421.518C406.98,-509.4,274.021,-518.078,156.451,-532.825C53.415,-545.749,-45.285,-521.393,-147.104,-500.989C-259.273,-478.511,-396.928,-495.278,-470.029,-407.282C-543.201,-319.2,-504.305,-186.853,-503.189,-72.348C-502.237,25.27,-507.416,124.465,-463.993,211.899C-421.334,297.796,-338.122,349.792,-263.575,410.131C-179.565,478.13,-107.92,581.566,0,587.46" fill="#222231"></path><path d="M1440 977.508C1523.66 985.69 1609.108 977.758 1684.206 939.992 1764.225 899.752 1835.394 838.988 1875.099 758.703 1915.413 677.188 1909.647 583.944 1905.212 493.113 1900.3609999999999 393.754 1919.6689999999999 275.475 1848.132 206.351 1776.185 136.83100000000002 1655.132 182.17399999999998 1558.117 157.72899999999998 1466.379 134.61399999999998 1388.743 52.547000000000025 1295.255 67.04399999999998 1199.338 81.918 1131.3319999999999 164.269 1064.156 234.32999999999998 993.854 307.651 921.195 383.233 897.4 481.986 872.471 585.447 863.422 709.719 929.511 793.133 995.4870000000001 876.404 1124.754 858.962 1224.676 895.0509999999999 1298.4569999999999 921.6990000000001 1361.926 969.873 1440 977.508" fill="#323249"></path></g><defs><mask id="SvgjsMask1002"><rect width="1440" height="560" fill="#ffffff"></rect></mask></defs></svg>